{"title":"Fergie Ft. YG - L.A. Love [La La] 1080p [Sbyky]","uid":11746242,"size":148883810,"categoryP":"video","categoryS":"music_videos","magnet":"?xt=urn:btih:e455fea1cd6e4e0e70d832b037418375d9da6146&amp;dn=Fergie+Ft.+YG+-+L.A.+Love+%5BLa+La%5D+1080p+%5BSbyky%5D&amp;tr=udp%3A%2F%2Ftracker.openbittorrent.com%3A80&amp;tr=udp%3A%2F%2Fopen.demonii.com%3A1337&amp;tr=udp%3A%2F%2Ftracker.coppersurfer.tk%3A6969&amp;tr=udp%3A%2F%2Fexodus.desync.com%3A6969","seeders":9,"leechers":0,"uploader":"Sbyky","files":1,"time":1426027168,"description":"General\nComplete name                            : Fergie Ft. YG - L.A. Love [La La] 1080p [Sbyky].mp4\nFormat                                   : MPEG-4\nFormat profile                           : Base Media\nCodec ID                                 : isom\nFile size                                : 142 MiB\nDuration                                 : 5mn 9s\nOverall bit rate mode                    : Variable\nOverall bit rate                         : 3 854 Kbps\nEncoded date                             : UTC 2014-12-01 10:45:42\nTagged date                              : UTC 2014-12-01 10:45:42\n\nVideo\nID                                       : 1\nFormat                                   : AVC\nFormat/Info                              : Advanced Video Codec\nFormat profile                           : &lt;a class=&quot;__cf_email__&quot; href=&quot;/cdn-cgi/l/email-protection&quot; data-cfemail=&quot;91d9f8f6f9d1dda5bfa1&quot;&gt;[email&amp;#160;protected]&lt;/a&gt;&lt;script cf-hash='f9e31' type=&quot;text/javascript&quot;&gt;\n/* &lt;![CDATA[ */!function(){try{var t=&quot;currentScript&quot;in document?document.currentScript:function(){for(var t=document.getElementsByTagName(&quot;script&quot;),e=t.length;e--;)if(t[e].getAttribute(&quot;cf-hash&quot;))return t[e]}();if(t&amp;&amp;t.previousSibling){var e,r,n,i,c=t.previousSibling,a=c.getAttribute(&quot;data-cfemail&quot;);if(a){for(e=&quot;&quot;,r=parseInt(a.substr(0,2),16),n=2;a.length-n;n+=2)i=parseInt(a.substr(n,2),16)^r,e+=String.fromCharCode(i);e=document.createTextNode(e),c.parentNode.replaceChild(e,c)}}}catch(u){}}();/* ]]&gt; */&lt;/script&gt;\nFormat settings, CABAC                   : Yes\nFormat settings, ReFrames                : 3 frames\nCodec ID                                 : avc1\nCodec ID/Info                            : Advanced Video Coding\nDuration                                 : 5mn 8s\nBit rate                                 : 3 725 Kbps\nWidth                                    : 1 920 pixels\nHeight                                   : 1 080 pixels\nDisplay aspect ratio                     : 16:9\nFrame rate mode                          : Variable\nFrame rate                               : 23.976 fps\nMinimum frame rate                       : 23.974 fps\nMaximum frame rate                       : 23.981 fps\nColor space                              : YUV\nChroma subsampling                       : 4:2:0\nBit depth                                : 8 bits\nScan type                                : Progressive\nBits/(Pixel*Frame)                       : 0.075\nStream size                              : 137 MiB (97%)\nEncoded date                             : UTC 2014-12-01 10:45:42\nTagged date                              : UTC 2014-12-01 10:45:42\n\nAudio\nID                                       : 2\nFormat                                   : AAC\nFormat/Info                              : Advanced Audio Codec\nFormat profile                           : LC\nCodec ID                                 : 40\nDuration                                 : 5mn 9s\nBit rate mode                            : Variable\nBit rate                                 : 126 Kbps\nChannel(s)                               : 2 channels\nChannel positions                        : Front: L R\nSampling rate                            : 44.1 KHz\nCompression mode                         : Lossy\nStream size                              : 4.63 MiB (3%)\nEncoded date                             : UTC 2014-12-01 10:43:24\nTagged date                              : UTC 2014-12-01 10:43:24\n\nShared By Sbyky","torrent":{"xt":"urn:btih:e455fea1cd6e4e0e70d832b037418375d9da6146","amp;dn":"Fergie+Ft.+YG+-+L.A.+Love+%5BLa+La%5D+1080p+%5BSbyky%5D","amp;tr":["udp%3A%2F%2Ftracker.openbittorrent.com%3A80","udp%3A%2F%2Fopen.demonii.com%3A1337","udp%3A%2F%2Ftracker.coppersurfer.tk%3A6969","udp%3A%2F%2Fexodus.desync.com%3A6969"],"infoHash":"e455fea1cd6e4e0e70d832b037418375d9da6146","infoHashBuffer":{"type":"Buffer","data":[228,85,254,161,205,110,78,14,112,216,50,176,55,65,131,117,217,218,97,70]},"announce":[],"urlList":[]}}